<svg width="1235" height="219" viewBox="0 0 1235 219" fill="none" xmlns="http://www.w3.org/2000/svg">
<path d="M63.5 43.5C46.6125 18.6333 0 0 0 0H1233.5V68.5C1233.5 68.5 1235.18 80.8714 1233.5 88.5C1230.55 101.937 1219.1 129.1 1213.5 117.5C1207.9 105.9 1192 88.5 1192 88.5C1192 88.5 1190.95 88.6638 1189.11 89.0464C1148.36 128.719 1042.27 169.418 1056 157C1068.19 145.976 1070.5 117.5 1070.5 117.5C1072 103 1056 77.5 1056 77.5C1048.5 66.5 989 68.5 989 68.5C980.2 68.5 1039.5 117.5 937 68.5L924 99.5C917.706 112.572 913.167 123.667 906 132C898.833 140.333 880.5 158.8 864.5 166C848.5 173.2 864.5 157 864.5 157V117.5C860.1 101.5 830 99.5 830 99.5C830 99.5 815.455 108.519 810 117.5C800.167 133.688 810 166 810 166L846.5 208C846.5 208 849.5 219.333 846.5 218.5C832 215 800.1 204.7 788.5 191.5C776.9 178.3 768 163 765 157C762 151 772 108.5 772 108.5V68.5C772 61.3 756.333 48.8333 748.5 43.5L716 52.5L660 72C660 72 653.198 81.4968 651 88.5C647.609 99.3057 680 132 651 117.5C633.963 108.981 628.833 110.472 627.5 113.151V117.5C627.5 117.5 626.564 115.033 627.5 113.151V88.5L598.5 68.5H575C575 68.5 565.211 86.9928 560.5 99.5C553.338 118.513 556.305 131.458 548 150C541.908 163.601 537.424 170.955 528 182.5C518.829 193.735 513.558 200.745 501 208C484.715 217.408 454 218.5 454 218.5H434L454 191.5L474 166L481 132L474 88.5L434 52.5H398L369 68.5V88.5C374.5 95.1667 387.379 103.752 390.5 117.5C393.342 130.023 390.5 137.5 385.5 150C380.5 162.5 369 117.5 340 137.5C311 157.5 316.5 112.167 311 99.5L273 108.5L262.5 150L273 191.5C273 191.5 305.333 220.167 291 218.5C276.667 216.833 246.2 212.4 239 208C239 208 206.375 198.284 193.5 182.5C181.71 168.047 177.52 156.151 177.5 137.5C177.472 110.852 213.296 103.944 210 77.5L209.96 77.1803C208.152 62.6696 206.585 50.0906 193.5 43.5C175.545 34.4569 161.893 53.5077 148.5 68.5C142.294 75.4471 141.518 81.3895 135.5 88.5C135.5 88.5 122.871 103.3 112 108.5C93.6806 117.263 78.9425 115.819 60 108.5L43.5 99.5C43.5 99.5 56.9977 94.5973 63.5 88.5L76 68.5C76 68.5 69.6325 52.53 63.5 43.5Z" fill="url(#paint0_linear_153_231)"/>
<defs>
<linearGradient id="paint0_linear_153_231" x1="616.75" y1="0" x2="616.75" y2="218.734" gradientUnits="userSpaceOnUse">
<stop/>
<stop offset="0.975" stop-color="#8859B3"/>
</linearGradient>
</defs>
</svg>
