<svg width="1229" height="1394" viewBox="0 0 1229 1394" fill="none" xmlns="http://www.w3.org/2000/svg">
<path d="M1221 829L1091.79 662.55L1055.13 638.22L1002.83 610.028L972.425 585.698L938 557.892V537.037L972.425 557.892L1012.66 578.746L1055.13 585.698C1061.99 590.332 1078.92 595.43 1091.79 578.746C1104.67 562.063 1123.98 543.989 1132.03 537.037V496.873L1107.89 435.468L1055.13 390.284L1002.83 372.905L956.33 336.216L938 278.674L972.425 238.509L1002.83 226.151L1012.66 238.509C1009.38 248.422 1006.05 271.722 1018.92 285.625C1031.8 299.528 1083.6 325.146 1107.89 336.216L1132.03 316.907L1154.39 285.625V253.957L1132.03 203.366L1107.89 159.726L1154.39 76.3078L1208.93 43.0951L1221 1V708.121V829Z" fill="#4169E1" stroke="black"/>
<path d="M0 569L311.62 604.601L864.445 624.608L1053.71 706.99L1190.05 825.268L1229 900.883V1394H0V569Z" fill="black"/>
<path d="M1229 1393V1261.72H1174.39V1378.47V1393H1229Z" fill="url(#paint0_linear_206_223)"/>
<path d="M1174.39 1378.47V1261.72V1219.13H1072.68V1378.47V1393H1174.39V1378.47Z" fill="url(#paint1_linear_206_223)"/>
<path d="M1072.68 1378.47V1219.13V1184.56H973.48V1231.66H891.313V1305.07H819.166V1231.66H714.954V1184.56H620.763V1281.52H553.626V1231.66H474.465V1261.72H389.793V1199.59H312.636V1345.9L218.444 1345.9V1281.52H146.298V1246.69H69.6416V1155H0V1393L1072.68 1393V1378.47Z" fill="url(#paint2_linear_206_223)"/>
<defs>
<linearGradient id="paint0_linear_206_223" x1="614.5" y1="1155" x2="614.5" y2="1393" gradientUnits="userSpaceOnUse">
<stop stop-color="#407BFF"/>
<stop offset="1"/>
</linearGradient>
<linearGradient id="paint1_linear_206_223" x1="614.5" y1="1155" x2="614.5" y2="1393" gradientUnits="userSpaceOnUse">
<stop stop-color="#407BFF"/>
<stop offset="1"/>
</linearGradient>
<linearGradient id="paint2_linear_206_223" x1="614.5" y1="1155" x2="614.5" y2="1393" gradientUnits="userSpaceOnUse">
<stop stop-color="#407BFF"/>
<stop offset="1"/>
</linearGradient>
</defs>
</svg>
