<svg width="2190" height="6729" viewBox="0 0 2190 6729" fill="none" xmlns="http://www.w3.org/2000/svg">
<path d="M0 2530.73L555.033 2711.89L1539.68 2813.71L1876.79 3232.94L2119.62 3834.83L2189 4219.62V6729H0V2530.73Z" fill="black"/>
<path d="M2189 6725.83V6310.2H2091.73V6679.83V6725.83H2189Z" fill="url(#paint0_linear_209_222)"/>
<path d="M2091.73 6679.83V6310.2V6175.36H1910.58V6679.83V6725.83H2091.73V6679.83Z" fill="url(#paint1_linear_209_222)"/>
<path d="M1910.58 6679.83V6175.36V6065.89H1733.89V6215.02H1587.54V6447.42H1459.04V6215.02H1273.42V6065.89H1105.65V6372.86H986.076V6215.02H845.081V6310.2H694.269V6113.49H556.843V6576.71H389.076V6372.86H260.574V6262.61H124.04V5972.3H-7.22408e-05V6725.83L1910.58 6725.83V6679.83Z" fill="url(#paint2_linear_209_222)"/>
<path d="M2189 3854.17L1862.91 3079.58L1770.39 2966.36L1638.38 2835.16L1561.65 2721.94L1474.77 2592.54V2495.49L1561.65 2592.54L1663.2 2689.59L1770.39 2721.94C1787.69 2743.5 1830.42 2767.23 1862.91 2689.59C1895.41 2611.95 1944.15 2527.84 1964.46 2495.49V2308.59L1903.53 2022.83L1770.39 1812.56L1638.38 1731.69L1521.03 1560.96L1474.77 1293.18L1561.65 1106.27L1638.38 1048.76L1663.2 1106.27C1654.93 1152.4 1646.5 1260.83 1679 1325.53C1711.49 1390.22 1842.23 1509.44 1903.53 1560.96L1964.46 1471.1L2020.88 1325.53V1178.16L1964.46 942.725L1903.53 739.643L2020.88 351.451L2158.54 196.893L2189 1V3291.65V3854.17Z" fill="#4169E1" stroke="black"/>
<defs>
<linearGradient id="paint0_linear_209_222" x1="1094.5" y1="5972.3" x2="1094.5" y2="6725.83" gradientUnits="userSpaceOnUse">
<stop stop-color="#407BFF"/>
<stop offset="1"/>
</linearGradient>
<linearGradient id="paint1_linear_209_222" x1="1094.5" y1="5972.3" x2="1094.5" y2="6725.83" gradientUnits="userSpaceOnUse">
<stop stop-color="#407BFF"/>
<stop offset="1"/>
</linearGradient>
<linearGradient id="paint2_linear_209_222" x1="1094.5" y1="5972.3" x2="1094.5" y2="6725.83" gradientUnits="userSpaceOnUse">
<stop stop-color="#407BFF"/>
<stop offset="1"/>
</linearGradient>
</defs>
</svg>
