<svg width="80" height="80" viewBox="0 0 80 80" fill="none" xmlns="http://www.w3.org/2000/svg">
<path d="M16.6667 21.5385C16.6667 27.2508 19.125 32.7292 23.5008 36.7685C27.8767 40.8077 33.8116 43.0769 40 43.0769C46.1884 43.0769 52.1233 40.8077 56.4992 36.7685C60.875 32.7292 63.3333 27.2508 63.3333 21.5385C63.3333 15.8261 60.875 10.3477 56.4992 6.30847C52.1233 2.26922 46.1884 0 40 0C33.8116 0 27.8767 2.26922 23.5008 6.30847C19.125 10.3477 16.6667 15.8261 16.6667 21.5385ZM73.3333 80H3.33333C2.44928 80 1.60143 79.6758 0.976311 79.0988C0.35119 78.5218 0 77.7391 0 76.9231V67.6923C0 63.6121 1.75595 59.6989 4.88155 56.8137C8.00716 53.9286 12.2464 52.3077 16.6667 52.3077H63.3333C67.7536 52.3077 71.9928 53.9286 75.1184 56.8137C78.244 59.6989 80 63.6121 80 67.6923V76.9231C80 77.7391 79.6488 78.5218 79.0237 79.0988C78.3986 79.6758 77.5507 80 76.6667 80H73.3333Z" fill="#407BFF"/>
</svg>
