<svg width="949" height="255" viewBox="0 0 949 255" fill="none" xmlns="http://www.w3.org/2000/svg">
<g filter="url(#filter0_d_4_5)">
<path d="M4 0V246.5H944.5C944.5 246.5 882.765 172.526 839 155.345C795.581 138.3 715.205 204.894 670.5 191.659C633.213 180.621 619.588 154.541 581.5 146.771C529.71 136.206 445.5 184.935 396.5 155.345C347.5 125.755 294.035 83.8251 220.5 87.2555C167.322 89.7362 180.5 101.882 120.5 101.882C60.5 101.882 27.5209 18.7976 4 0Z" fill="#FF7070"/>
</g>
<path d="M4.00012 11L4.00014 248H944.5C944.5 248 882.765 190.032 839 173C795.581 156.102 715.205 222.12 670.5 209C633.213 198.057 619.588 172.203 581.5 164.5C529.71 154.026 445.5 202.333 396.5 173C347.5 143.667 294.035 102.099 220.5 105.5C167.322 107.959 180.5 120 120.5 120C60.5 120 27.521 29.6349 4.00012 11Z" fill="#FF0000"/>
<defs>
<filter id="filter0_d_4_5" x="0" y="0" width="948.5" height="254.5" filterUnits="userSpaceOnUse" color-interpolation-filters="sRGB">
<feFlood flood-opacity="0" result="BackgroundImageFix"/>
<feColorMatrix in="SourceAlpha" type="matrix" values="0 0 0 0 0 0 0 0 0 0 0 0 0 0 0 0 0 0 127 0" result="hardAlpha"/>
<feOffset dy="4"/>
<feGaussianBlur stdDeviation="2"/>
<feComposite in2="hardAlpha" operator="out"/>
<feColorMatrix type="matrix" values="0 0 0 0 0 0 0 0 0 0 0 0 0 0 0 0 0 0 0.25 0"/>
<feBlend mode="normal" in2="BackgroundImageFix" result="effect1_dropShadow_4_5"/>
<feBlend mode="normal" in="SourceGraphic" in2="effect1_dropShadow_4_5" result="shape"/>
</filter>
</defs>
</svg>
