<svg width="1048" height="580" viewBox="0 0 1048 580" fill="none" xmlns="http://www.w3.org/2000/svg">
<rect x="215" y="504.711" width="100" height="100" transform="rotate(-45 215 504.711)" fill="black"/>
<rect x="237.828" y="508.711" width="96" height="96" transform="rotate(-45 237.828 508.711)" stroke="#FF0000" stroke-width="4"/>
<path d="M897 163L972 119.699V206.301L897 163Z" fill="#FF0000"/>
<path d="M981 204.569L909 163L981 121.431V204.569Z" stroke="white" stroke-width="2"/>
<path d="M755 472.5L798 438L850.5 472.5L896 438L942.5 472.5L1004.5 438L1046 481" stroke="#FF0000" stroke-width="4"/>
<path d="M150.01 24.7771C169.184 14.9857 188.215 17.0729 204.811 30.7875C223.723 46.4155 199.063 76.1655 217.539 92.3058C234.333 106.976 258.176 84.4814 274.108 100.084C290.262 115.905 268.821 139.426 282.593 157.36C299.469 179.336 335.83 153.507 350.829 176.805C363.461 196.428 349.768 236.556 349.768 236.556" stroke="white" stroke-width="4"/>
<path d="M132.01 43.7771C151.184 33.9857 170.215 36.0729 186.811 49.7875C205.723 65.4155 181.063 95.1655 199.539 111.306C216.333 125.976 240.176 103.481 256.108 119.084C272.262 134.905 250.821 158.426 264.593 176.36C281.469 198.336 317.83 172.507 332.829 195.805C345.461 215.428 331.768 255.556 331.768 255.556" stroke="#FF0000" stroke-width="4"/>
<circle cx="50" cy="147" r="50" fill="#FF7070"/>
<circle cx="54" cy="153" r="48" stroke="#FF0000" stroke-width="4"/>
<path d="M873.355 283.355L905.723 299.848L931.41 274.16L925.727 310.04L958.095 326.532L922.215 332.215L916.532 368.095L900.04 335.727L864.16 341.41L889.848 315.723L873.355 283.355Z" fill="#D9D9D9"/>
<path d="M877.932 288.932L904.815 302.63L906.11 303.289L907.137 302.262L928.472 280.927L923.752 310.727L923.525 312.163L924.819 312.822L951.703 326.52L921.902 331.24L920.467 331.467L920.24 332.902L915.52 362.703L901.822 335.819L901.163 334.525L899.727 334.752L869.927 339.472L891.262 318.137L892.289 317.11L891.63 315.815L877.932 288.932Z" stroke="black" stroke-width="4"/>
</svg>
