<svg width="25" height="25" viewBox="0 0 25 25" fill="none" xmlns="http://www.w3.org/2000/svg">
<path d="M18.4899 1.86768L20.6811 4.05882C20.7759 4.15705 20.8284 4.28862 20.8272 4.42518C20.8261 4.56174 20.7713 4.69237 20.6747 4.78894C20.5781 4.8855 20.4475 4.94028 20.311 4.94146C20.1744 4.94265 20.0428 4.89015 19.9446 4.79528L19.0107 3.86143V22.9166H17.9691V3.86143L17.0352 4.79528C16.9872 4.84503 16.9297 4.8847 16.8662 4.912C16.8026 4.9393 16.7343 4.95366 16.6651 4.95427C16.596 4.95487 16.5274 4.94169 16.4634 4.9155C16.3994 4.88931 16.3412 4.85064 16.2923 4.80174C16.2434 4.75283 16.2047 4.69468 16.1785 4.63067C16.1524 4.56666 16.1392 4.49808 16.1398 4.42893C16.1404 4.35977 16.1547 4.29143 16.182 4.22788C16.2093 4.16434 16.249 4.10687 16.2988 4.05882L18.4899 1.86768ZM14.5837 4.16663C14.5837 4.71917 14.3642 5.24907 13.9735 5.63977C13.5828 6.03047 13.0529 6.24997 12.5003 6.24997C11.9478 6.24997 11.4179 6.03047 11.0272 5.63977C10.6365 5.24907 10.417 4.71917 10.417 4.16663C10.417 3.6141 10.6365 3.0842 11.0272 2.69349C11.4179 2.30279 11.9478 2.0833 12.5003 2.0833C13.0529 2.0833 13.5828 2.30279 13.9735 2.69349C14.3642 3.0842 14.5837 3.6141 14.5837 4.16663Z" fill="#3C3C3C"/>
<path d="M15.6254 14.9998C15.7909 14.9197 15.9323 14.7971 16.0351 14.6446C16.138 14.4921 16.1986 14.3151 16.2108 14.1316L16.578 8.62481C16.6233 7.94772 16.0197 7.4071 15.3494 7.51022C14.4223 7.65241 13.2217 7.81231 12.5004 7.81231C11.779 7.81231 10.5785 7.65241 9.65144 7.51022C8.9806 7.4071 8.37748 7.94772 8.42227 8.62481L8.78946 14.1316C8.80166 14.3152 8.86231 14.4924 8.96523 14.645C9.06816 14.7976 9.20968 14.9202 9.37539 15.0003V21.8748C9.37564 22.144 9.48009 22.4027 9.66685 22.5965C9.85361 22.7904 10.1082 22.9045 10.3772 22.9148C10.6462 22.9251 10.9087 22.8308 11.1098 22.6518C11.3108 22.4728 11.4348 22.2229 11.4556 21.9545L11.9764 15.1837C11.9785 15.1571 11.9795 15.1306 11.9796 15.104H13.0212C13.0212 15.1304 13.0223 15.1569 13.0244 15.1837L13.5452 21.9545C13.566 22.2229 13.69 22.4728 13.891 22.6518C14.092 22.8308 14.3546 22.9251 14.6236 22.9148C14.8926 22.9045 15.1472 22.7904 15.3339 22.5965C15.5207 22.4027 15.6252 22.144 15.6254 21.8748V14.9998Z" fill="#3C3C3C"/>
</svg>
