<svg width="25" height="25" viewBox="0 0 25 25" fill="none" xmlns="http://www.w3.org/2000/svg">
<path d="M12.5 2.24609C10.2991 2.24609 8.49609 4.04912 8.49609 6.25C8.49609 7.51035 9.08804 8.63945 10.0067 9.375H6.25L1.5625 23.4375H23.4375L18.75 9.375H14.9933C15.912 8.63945 16.5039 7.51035 16.5039 6.25C16.5039 4.04912 14.7009 2.24609 12.5 2.24609ZM12.5 4.00391C13.7509 4.00391 14.7461 4.99912 14.7461 6.25C14.7461 7.50088 13.7509 8.49609 12.5 8.49609C11.2491 8.49609 10.2539 7.50088 10.2539 6.25C10.2539 4.99912 11.2491 4.00391 12.5 4.00391ZM8.4856 13.9136H9.63306V15.5377L11.287 13.9135H12.6192L10.4765 16.0205L12.8397 18.3629H11.4033L9.63306 16.6106V18.3629H8.4856V13.9136ZM14.3417 14.9507C14.5742 14.9507 14.7788 14.9963 14.9557 15.0877C15.1325 15.1791 15.2944 15.3231 15.4415 15.5198V15.0252H16.5144V18.0263C16.5144 18.5627 16.3445 18.972 16.0047 19.2541C15.6669 19.5382 15.1762 19.6803 14.5324 19.6802C14.3239 19.6802 14.1222 19.6643 13.9274 19.6326C13.7282 19.5997 13.5318 19.5508 13.3403 19.4866V18.655C13.5272 18.7624 13.71 18.8418 13.8887 18.8935C14.0676 18.9472 14.2474 18.974 14.4282 18.974C14.7779 18.974 15.0342 18.8975 15.1971 18.7445C15.36 18.5916 15.4415 18.3522 15.4415 18.0263V17.7968C15.2945 17.9915 15.1326 18.1345 14.9557 18.2259C14.7788 18.3173 14.5742 18.363 14.3417 18.363C13.9344 18.363 13.5977 18.2031 13.3315 17.8833C13.0652 17.5614 12.9321 17.1521 12.9321 16.6554C12.9321 16.1567 13.0652 15.7484 13.3315 15.4305C13.5977 15.1107 13.9344 14.9507 14.3417 14.9507ZM14.7381 15.7195C14.5176 15.7196 14.3457 15.801 14.2225 15.9639C14.0993 16.1269 14.0377 16.3574 14.0377 16.6554C14.0377 16.9614 14.0973 17.1938 14.2166 17.3527C14.3358 17.5097 14.5097 17.5882 14.7381 17.5882C14.9606 17.5882 15.1335 17.5067 15.2567 17.3438C15.3799 17.1808 15.4415 16.9514 15.4415 16.6554C15.4415 16.3573 15.3799 16.1269 15.2566 15.964C15.1335 15.801 14.9606 15.7195 14.7381 15.7195H14.7381Z" fill="#3C3C3C"/>
</svg>
