<svg width="80" height="80" viewBox="0 0 80 80" fill="none" xmlns="http://www.w3.org/2000/svg">
<path d="M14.7698 42.7401L58.1031 72.7401C58.6032 73.0861 59.1884 73.2887 59.7954 73.326C60.4024 73.3633 61.008 73.2339 61.5467 72.9516C62.0853 72.6694 62.5366 72.2452 62.8514 71.725C63.1663 71.2047 63.3329 70.6082 63.3331 70.0001V10.0001C63.3335 9.39168 63.1674 8.79477 62.8527 8.27403C62.5381 7.7533 62.0869 7.32861 61.5481 7.046C61.0094 6.76338 60.4035 6.63362 59.7962 6.67077C59.1889 6.70792 58.6034 6.91057 58.1031 7.25676L14.7698 37.2568C14.3283 37.5649 13.9678 37.975 13.7188 38.4524C13.4698 38.9297 13.3398 39.4601 13.3398 39.9984C13.3398 40.5368 13.4698 41.0672 13.7188 41.5445C13.9678 42.0218 14.3283 42.432 14.7698 42.7401Z" fill="#FF0000"/>
</svg>
