<svg width="80" height="80" viewBox="0 0 80 80" fill="none" xmlns="http://www.w3.org/2000/svg">
<path d="M65.2302 42.7401L21.8969 72.7401C21.3968 73.0861 20.8116 73.2887 20.2046 73.326C19.5976 73.3633 18.992 73.2339 18.4533 72.9516C17.9147 72.6694 17.4634 72.2452 17.1486 71.725C16.8337 71.2047 16.6671 70.6082 16.6669 70.0001V10.0001C16.6665 9.39168 16.8326 8.79477 17.1473 8.27403C17.4619 7.7533 17.9131 7.32861 18.4519 7.046C18.9906 6.76338 19.5965 6.63362 20.2038 6.67077C20.8111 6.70792 21.3966 6.91057 21.8969 7.25676L65.2302 37.2568C65.6717 37.5649 66.0322 37.975 66.2812 38.4524C66.5302 38.9297 66.6602 39.4601 66.6602 39.9984C66.6602 40.5368 66.5302 41.0672 66.2812 41.5445C66.0322 42.0218 65.6717 42.432 65.2302 42.7401Z" fill="#FF0000"/>
</svg>
